<svg width="96" height="108" viewBox="0 0 96 108" fill="none" xmlns="http://www.w3.org/2000/svg">
<path fill-rule="evenodd" clip-rule="evenodd" d="M96.0001 54C96.0001 62.6211 94.2043 70.7702 91.0107 78H51.0001C58.388 66.6844 66.0001 52.9819 66.0001 39C66.0001 21.0071 53.8154 5.86006 37.2473 1.36018C40.7042 0.470135 44.3033 0 48.0001 0C74.5097 0 96.0001 24.1766 96.0001 54ZM54 39C54 24.0883 41.9117 12 27 12C7.04805 12 0 37.5213 0 54C0 83.8234 21.4903 108 48 108C62.216 108 74.9886 101.047 83.7777 90H27C28.0555 88.6543 29.1607 87.2674 30.2961 85.8427C40.847 72.6036 54 56.0992 54 39Z" fill="#7859CF"/>
</svg>
